<svg width="100" height="100" viewBox="0 0 100 100" fill="none" xmlns="http://www.w3.org/2000/svg">
<path d="M71.023 15.902C65.8003 21.1247 62.2105 27.644 62.0542 33.683L60.148 35.5892C60.2652 34.3978 60.3355 33.183 60.3355 31.9642C60.3238 24.2572 57.9839 16.8312 53.273 12.7142C52.6753 12.1829 51.855 11.9056 51.0542 11.9642C50.4214 12.0228 49.8081 12.2923 49.3354 12.7142C44.6401 16.8431 42.3354 24.2652 42.3354 31.9642C42.3471 38.2884 43.894 44.4092 47.0542 48.6832C44.0151 51.7457 40.7769 54.9723 38.1167 57.6207C38.2339 56.4176 38.3042 55.1949 38.3042 53.9645C38.2925 46.2575 35.9839 38.8005 31.273 34.6835C30.6675 34.16 29.8511 33.8944 29.0542 33.9647C28.4214 34.0233 27.8081 34.2929 27.3354 34.7147C22.6401 38.8436 20.3042 46.2657 20.3042 53.9647C20.3159 60.2889 21.8862 66.4097 25.0542 70.6837C19.4409 76.3478 13.6322 82.1177 7.89821 87.8397C6.67551 88.9256 6.61301 91.0624 7.77321 92.2147C8.93341 93.367 11.0701 93.2889 12.1482 92.0585L25.1172 79.0895C29.4024 82.3434 35.6092 83.9645 42.0232 83.9645C49.7302 83.9528 57.1562 81.6129 61.2732 76.902C62.2107 75.82 62.2107 74.0465 61.2732 72.9645C57.1443 68.2692 49.7222 65.9645 42.0232 65.9645C40.6755 65.9645 39.3396 66.0387 38.0232 66.1832L47.117 57.0894C51.4022 60.3433 57.609 61.9644 64.023 61.9644C71.73 61.9527 79.156 59.6128 83.273 54.9019C84.2105 53.8199 84.2105 52.0464 83.273 50.9644C79.1441 46.2691 71.722 43.9644 64.023 43.9644C62.6753 43.9644 61.3394 44.0387 60.023 44.1832L66.273 37.9332C72.3199 37.773 78.855 34.1871 84.085 28.9644C89.7217 23.3238 93.4561 16.1674 93.0225 9.74539C92.9209 8.30789 91.6475 7.05009 90.21 6.96419C82.5108 6.85091 75.21 11.808 71.022 15.9017L71.023 15.902ZM86.585 13.3708C85.6553 16.8317 83.2842 21.2653 79.835 24.7148C76.3858 28.1562 71.96 30.5312 68.491 31.4648C69.4246 28.0078 71.8308 23.5937 75.2722 20.1528C78.7214 16.7114 83.116 14.3051 86.5842 13.3716L86.585 13.3708ZM51.335 19.902C52.9952 22.8786 54.3311 27.3903 54.335 31.964C54.335 36.5499 52.9991 41.046 51.335 44.026C49.667 41.0494 48.3389 36.5533 48.335 31.964C48.335 27.3898 49.6788 22.882 51.335 19.902ZM29.304 41.871C30.972 44.8476 32.3001 49.371 32.304 53.965C32.304 58.5353 30.9915 63.0158 29.3352 65.996C27.675 63.0194 26.3079 58.5429 26.304 53.965C26.304 49.3791 27.6399 44.8517 29.304 41.871V41.871ZM64.023 49.9648C68.5972 49.9648 73.0738 51.3086 76.054 52.9648C73.0774 54.625 68.597 55.9609 64.023 55.9648C59.4371 55.9648 54.941 54.6289 51.961 52.9648C54.9376 51.2968 59.4337 49.9687 64.023 49.9648ZM42.023 71.9648C46.5972 71.9648 51.0738 73.3086 54.054 74.9648C51.0774 76.625 46.597 77.9609 42.023 77.9648C37.4371 77.9648 32.941 76.6289 29.961 74.9648C32.9376 73.2968 37.4337 71.9687 42.023 71.9648Z" fill="black"/>
</svg>
