<svg width="24" height="24" viewBox="0 0 24 24" fill="none" xmlns="http://www.w3.org/2000/svg">
<path d="M17.7071 8.29289C18.0976 8.68342 18.0976 9.31658 17.7071 9.70711L15.4142 12L17.7071 14.2929C18.0976 14.6834 18.0976 15.3166 17.7071 15.7071C17.3166 16.0976 16.6834 16.0976 16.2929 15.7071L14 13.4142L11.7071 15.7071C11.3166 16.0976 10.6834 16.0976 10.2929 15.7071C9.90237 15.3166 9.90237 14.6834 10.2929 14.2929L12.5858 12L10.2929 9.70711C9.90237 9.31658 9.90237 8.68342 10.2929 8.29289C10.6834 7.90237 11.3166 7.90237 11.7071 8.29289L14 10.5858L16.2929 8.29289C16.6834 7.90237 17.3166 7.90237 17.7071 8.29289Z" fill="#3F545B"/>
<path d="M22 5C22 4.44772 21.5523 4 21 4H9.45994C8.87609 4 8.32139 4.25513 7.94142 4.69842L2.79856 10.6984C2.15658 11.4474 2.15658 12.5526 2.79856 13.3016L7.94142 19.3016C8.32139 19.7449 8.87609 20 9.45994 20H21C21.5523 20 22 19.5523 22 19V5ZM20 18H9.45993L4.31708 12L9.45994 6H20V18Z" fill="#3F545B"/>
</svg>
