<svg width="24" height="24" viewBox="0 0 24 24" fill="none" xmlns="http://www.w3.org/2000/svg">
<path fill-rule="evenodd" clip-rule="evenodd" d="M7 4C6.44772 4 6 4.44772 6 5V19C6 19.5523 6.44772 20 7 20H13.5C15.9853 20 18 17.9853 18 15.5C18 13.5575 16.7692 11.9025 15.0449 11.2722C15.6433 10.5081 16 9.54573 16 8.5C16 6.01472 13.9853 4 11.5 4H7ZM11.5 11C12.8807 11 14 9.88071 14 8.5C14 7.11929 12.8807 6 11.5 6H8V11H11.5ZM8 13V18H13.5C14.8807 18 16 16.8807 16 15.5C16 14.1193 14.8807 13 13.5 13H8Z" fill="#3F545B"/>
</svg>
