<svg width="24" height="24" viewBox="0 0 24 24" fill="none" xmlns="http://www.w3.org/2000/svg">
<path fill-rule="evenodd" clip-rule="evenodd" d="M12 2C6.47715 2 2 6.47715 2 12C2 17.5228 6.47715 22 12 22C17.5228 22 22 17.5228 22 12C22 6.47715 17.5228 2 12 2ZM13.7071 7.29289C13.3166 6.90237 12.6834 6.90237 12.2929 7.29289C11.9024 7.68342 11.9024 8.31658 12.2929 8.70711L14.5858 11H7C6.44772 11 6 11.4477 6 12C6 12.5523 6.44772 13 7 13H14.5858L12.2929 15.2929C11.9024 15.6834 11.9024 16.3166 12.2929 16.7071C12.6834 17.0976 13.3166 17.0976 13.7071 16.7071L17.7071 12.7071C18.0976 12.3166 18.0976 11.6834 17.7071 11.2929L13.7071 7.29289Z" fill="#3F545B"/>
</svg>
