<svg width="24" height="24" viewBox="0 0 24 24" fill="none" xmlns="http://www.w3.org/2000/svg">
<path fill-rule="evenodd" clip-rule="evenodd" d="M12 2C6.47715 2 2 6.47715 2 12C2 17.5228 6.47715 22 12 22C17.5228 22 22 17.5228 22 12C22 6.47715 17.5228 2 12 2ZM16.7474 10.1644C17.1143 9.75158 17.0772 9.11951 16.6644 8.75259C16.2516 8.38567 15.6195 8.42285 15.2526 8.83564L10.6667 13.9948L8.74742 11.8356C8.3805 11.4229 7.74843 11.3857 7.33565 11.7526C6.92286 12.1195 6.88568 12.7516 7.2526 13.1644L9.91927 16.1644C10.109 16.3779 10.381 16.5 10.6667 16.5C10.9523 16.5 11.2243 16.3779 11.4141 16.1644L16.7474 10.1644Z" fill="#3F545B"/>
</svg>
