<svg width="24" height="24" viewBox="0 0 24 24" fill="none" xmlns="http://www.w3.org/2000/svg">
<path fill-rule="evenodd" clip-rule="evenodd" d="M12 2C6.47715 2 2 6.47715 2 12C2 17.5228 6.47715 22 12 22C17.5228 22 22 17.5228 22 12C22 6.47715 17.5228 2 12 2ZM11.7071 8.70711C12.0976 8.31658 12.0976 7.68342 11.7071 7.29289C11.3166 6.90237 10.6834 6.90237 10.2929 7.29289L6.29289 11.2929C5.90237 11.6834 5.90237 12.3166 6.29289 12.7071L10.2929 16.7071C10.6834 17.0976 11.3166 17.0976 11.7071 16.7071C12.0976 16.3166 12.0976 15.6834 11.7071 15.2929L9.41421 13H17C17.5523 13 18 12.5523 18 12C18 11.4477 17.5523 11 17 11H9.41421L11.7071 8.70711Z" fill="#3F545B"/>
</svg>
