<svg width="24" height="24" viewBox="0 0 24 24" fill="none" xmlns="http://www.w3.org/2000/svg">
<path fill-rule="evenodd" clip-rule="evenodd" d="M9 2C8.44772 2 8 2.44772 8 3H6C4.89543 3 4 3.89543 4 5V20C4 21.1046 4.89543 22 6 22H18C19.1046 22 20 21.1046 20 20V5C20 3.89543 19.1046 3 18 3H16C16 2.44772 15.5523 2 15 2H9ZM6 5H8V6C8 6.55228 8.44772 7 9 7H15C15.5523 7 16 6.55228 16 6V5H18V20H6V5ZM10 4H14V5H10V4ZM14.7071 10.7929C15.0976 11.1834 15.0976 11.8166 14.7071 12.2071L13.4142 13.5L14.7071 14.7929C15.0976 15.1834 15.0976 15.8166 14.7071 16.2071C14.3166 16.5976 13.6834 16.5976 13.2929 16.2071L12 14.9142L10.7071 16.2071C10.3166 16.5976 9.68342 16.5976 9.29289 16.2071C8.90237 15.8166 8.90237 15.1834 9.29289 14.7929L10.5858 13.5L9.29289 12.2071C8.90237 11.8166 8.90237 11.1834 9.29289 10.7929C9.68342 10.4024 10.3166 10.4024 10.7071 10.7929L12 12.0858L13.2929 10.7929C13.6834 10.4024 14.3166 10.4024 14.7071 10.7929Z" fill="#3F545B"/>
</svg>
