<svg width="24" height="24" viewBox="0 0 24 24" fill="none" xmlns="http://www.w3.org/2000/svg">
<path fill-rule="evenodd" clip-rule="evenodd" d="M19 4.00001H14.0221C14.007 3.99967 13.9919 3.99967 13.9769 4.00001H9C8.44772 4.00001 8 4.44773 8 5.00001C8 5.5523 8.44772 6.00001 9 6.00001H12.6743L9.2457 18H5C4.44772 18 4 18.4477 4 19C4 19.5523 4.44772 20 5 20H9.97791C9.99301 20.0004 10.0081 20.0004 10.0231 20H15C15.5523 20 16 19.5523 16 19C16 18.4477 15.5523 18 15 18H11.3257L14.7543 6.00001H19C19.5523 6.00001 20 5.5523 20 5.00001C20 4.44773 19.5523 4.00001 19 4.00001Z" fill="#3F545B"/>
</svg>
