<svg width="24" height="24" viewBox="0 0 24 24" fill="none" xmlns="http://www.w3.org/2000/svg">
<path d="M9 7C9 6.44772 9.44772 6 10 6H19C19.5523 6 20 6.44772 20 7C20 7.55228 19.5523 8 19 8H10C9.44772 8 9 7.55228 9 7ZM9 12C9 11.4477 9.44772 11 10 11H19C19.5523 11 20 11.4477 20 12C20 12.5523 19.5523 13 19 13H10C9.44772 13 9 12.5523 9 12ZM9 17C9 16.4477 9.44772 16 10 16H19C19.5523 16 20 16.4477 20 17C20 17.5523 19.5523 18 19 18H10C9.44772 18 9 17.5523 9 17Z" fill="#3F545B"/>
<path fill-rule="evenodd" clip-rule="evenodd" d="M4.83521 5.11547C4.94868 5.04016 5.08184 5 5.21802 5H5.246C5.62835 5 5.9383 5.30996 5.9383 5.69231V10.3077C5.9383 10.69 5.62835 11 5.246 11C4.86364 11 4.55369 10.69 4.55369 10.3077V6.96352C4.23753 7.15723 3.82224 7.06724 3.61554 6.75577C3.40412 6.43719 3.49099 6.00754 3.80957 5.79612L4.83521 5.11547Z" fill="#3F545B"/>
<path fill-rule="evenodd" clip-rule="evenodd" d="M3 14.431C3 13.3801 3.81123 12.5 4.9402 12.5C6.01871 12.5 6.86206 13.3135 6.86206 14.4035C6.86206 15.207 6.46334 15.7531 5.75382 16.5933L5.31339 17.1154H6.44502C6.82737 17.1154 7.13733 17.4253 7.13733 17.8077C7.13733 18.19 6.82737 18.5 6.44502 18.5H3.83912C3.45677 18.5 3.14681 18.19 3.14681 17.8077V17.7893C3.14681 17.626 3.2046 17.4678 3.30995 17.3429L4.69548 15.7005C5.43098 14.8296 5.47744 14.6414 5.47744 14.4035C5.47744 14.0988 5.27476 13.8846 4.9402 13.8846C4.60106 13.8846 4.38462 14.1194 4.38462 14.431C4.38462 14.8134 4.07466 15.1233 3.69231 15.1233C3.30996 15.1233 3 14.8134 3 14.431Z" fill="#3F545B"/>
</svg>
