<svg width="24" height="24" viewBox="0 0 24 24" fill="none" xmlns="http://www.w3.org/2000/svg">
<path d="M19 10C19 6.77579 16.8202 4.06072 13.8538 3.24812C13.5567 2.51616 12.8386 2 12 2C11.1614 2 10.4433 2.51616 10.1461 3.24812C9.58604 3.40155 9.05399 3.62281 8.55936 3.90252L10.051 5.39411C10.6499 5.14035 11.3085 5 12 5C14.7614 5 17 7.23858 17 10V12.3431L19 14.3431V10Z" fill="#3F545B"/>
<path d="M3.17528 17.4343L4.99998 14.6972V9.99999C4.99998 8.94987 5.23122 7.95375 5.64556 7.05978L3.29288 4.70711C2.90235 4.31658 2.90235 3.68342 3.29288 3.29289C3.6834 2.90237 4.31657 2.90237 4.70709 3.29289L20.7071 19.2929C21.0976 19.6834 21.0976 20.3166 20.7071 20.7071C20.3166 21.0976 19.6834 21.0976 19.2929 20.7071L17.5858 19H15.4645C15.2219 20.6961 13.7632 22 12 22C10.2367 22 8.77804 20.6961 8.53543 19H4.01295C3.91553 19.0014 3.81742 18.9885 3.72185 18.9608C3.59601 18.9244 3.48037 18.864 3.38024 18.7849C3.16668 18.616 3.02367 18.3618 3.00266 18.0738C2.99349 17.9509 3.00689 17.8258 3.04419 17.7051C3.07423 17.6076 3.11877 17.5165 3.17528 17.4343ZM5.86849 17H15.5858L7.19574 8.60997C7.06828 9.05126 6.99998 9.51765 6.99998 9.99999V15C6.99998 15.1974 6.94155 15.3904 6.83203 15.5547L5.86849 17ZM10.5853 19C10.7913 19.5826 11.3469 20 12 20C12.6531 20 13.2087 19.5826 13.4146 19H10.5853Z" fill="#3F545B"/>
</svg>
