<svg width="24" height="24" viewBox="0 0 24 24" fill="none" xmlns="http://www.w3.org/2000/svg">
<path d="M6.00913 16.1357L4.1421 4.00002H3C2.44772 4.00002 2 3.5523 2 3.00002C2 2.44773 2.44772 2.00002 3 2.00002H4.9847C5.0806 1.99842 5.17434 2.01068 5.26367 2.03514C5.40561 2.07384 5.53497 2.14302 5.64429 2.23521C5.76213 2.33439 5.85751 2.46092 5.91981 2.607C5.95413 2.68721 5.97826 2.77282 5.99058 2.86221L6.31948 5.00002H14V7.00002H6.62717L7.85794 15H17.256L18.756 10H20.844L18.9578 16.2874C18.8309 16.7103 18.4416 17 18 17H7.01578C6.92133 17.0016 6.82899 16.9898 6.74088 16.9661C6.59074 16.926 6.45453 16.8517 6.34104 16.7522C6.2371 16.6612 6.15157 16.5486 6.0921 16.4198C6.05113 16.3313 6.02271 16.2359 6.00913 16.1357Z" fill="#3F545B"/>
<path d="M10 20C10 21.1046 9.10457 22 8 22C6.89543 22 6 21.1046 6 20C6 18.8954 6.89543 18 8 18C9.10457 18 10 18.8954 10 20Z" fill="#3F545B"/>
<path d="M19 20C19 21.1046 18.1046 22 17 22C15.8954 22 15 21.1046 15 20C15 18.8954 15.8954 18 17 18C18.1046 18 19 18.8954 19 20Z" fill="#3F545B"/>
<path d="M19 2.00002C19.5523 2.00002 20 2.44773 20 3.00002V4.00002H21C21.5523 4.00002 22 4.44773 22 5.00002C22 5.5523 21.5523 6.00002 21 6.00002H20V7.00002C20 7.5523 19.5523 8.00002 19 8.00002C18.4477 8.00002 18 7.5523 18 7.00002V6.00002H17C16.4477 6.00002 16 5.5523 16 5.00002C16 4.44773 16.4477 4.00002 17 4.00002H18V3.00002C18 2.44773 18.4477 2.00002 19 2.00002Z" fill="#3F545B"/>
</svg>
